<svg width="70" height="50" viewBox="0 0 70 50" fill="none" xmlns="http://www.w3.org/2000/svg">
<path d="M28.9277 42.2266H40.828V43.1758C40.828 44.5469 39.5044 45.6618 37.8768 45.6618H31.879C30.2513 45.6618 28.9277 44.5469 28.9277 43.1758V42.2266Z" fill="url(#paint0_linear_2090_39446)"/>
<path opacity="0.16" d="M31.5098 42.2363H38.5808V42.7988C38.5808 43.6124 37.7938 44.2754 36.8279 44.2754H33.2626C32.2968 44.2754 31.5098 43.6124 31.5098 42.7988V42.2363Z" fill="white"/>
<path d="M30.084 47.1367H40.0108V47.9252C40.0108 49.0703 38.9078 49.9994 37.5485 49.9994H32.5463C31.187 49.9994 30.084 49.0703 30.084 47.9252V47.1367Z" fill="url(#paint1_linear_2090_39446)"/>
<path opacity="0.16" d="M32.2363 47.1406H38.1328V47.6077C38.1328 48.2857 37.477 48.8382 36.6721 48.8382H33.697C32.8922 48.8382 32.2363 48.2857 32.2363 47.6077V47.1406Z" fill="white"/>
<path d="M45.9199 31.8537C45.9199 32.808 45.9199 33.7572 45.9259 34.7114V37.9508C48.8413 37.9408 51.7568 37.9307 54.6722 37.9257C54.9465 37.9257 55.3698 37.8905 55.8229 37.7097C56.4131 37.4737 56.7411 37.102 56.908 36.9011C58.0885 35.525 58.7682 34.2494 58.7682 34.2494C59.3107 33.2349 59.9248 32.2405 60.4852 31.231C61.1172 30.0809 61.3736 29.654 62.2798 28.0318C62.8224 27.0575 63.6153 25.6613 64.6229 23.9336" fill="#5547D7" fill-opacity="0.5"/>
<path d="M44.6622 20.6891C44.9424 20.8549 46.3137 19.7299 48.7701 17.3141V18.6551L46.0633 21.2617C46.0156 24.3805 45.9679 27.4993 45.9202 30.6232C45.9381 30.6332 49.8194 31.9842 51.0416 32.2102C52.4665 32.4764 53.4801 32.5166 54.4698 32.1701C55.1197 31.9441 55.537 31.6277 55.7278 31.477C57.0335 30.4575 60.247 27.6852 64.6649 23.9084C66.2449 21.4123 67.8188 18.9163 69.3988 16.4202C69.6611 15.8979 70.5256 14.0195 69.5419 12.106C69.2795 11.6038 68.9457 11.197 68.6237 10.8856C65.4996 8.3343 62.3218 5.65742 59.1977 3.1061C57.9159 3.06592 55.4297 3.27183 52.9733 4.57763C51.6736 5.26568 50.0459 5.73777 48.7701 7.50562C48.7462 7.53575 48.3706 7.74669 48.3527 7.77682C45.5386 11.7294 44.9961 16.3348 44.6801 19.308C44.5966 20.1618 44.5132 20.6037 44.6622 20.6891Z" fill="url(#paint2_linear_2090_39446)"/>
<path d="M45.9196 30.4726L46.0507 30.5178C47.4816 30.9548 48.7813 31.3113 50.0751 31.7583C50.5044 31.8989 51.2735 32.1099 52.0724 32.1601C52.5076 32.1902 53.0979 32.3459 53.9504 32.1149C54.803 31.8839 55.4112 31.5172 55.5841 31.3917C56.0074 31.0904 57.0567 30.2064 57.9271 29.4933C58.9943 28.6194 60.1152 27.6802 61.1347 26.7712C61.8919 26.0982 63.0843 25.0937 64.6166 23.9336C62.7504 25.7918 61.3374 27.3688 60.3954 28.4637C58.0225 31.226 57.2117 32.5669 54.9521 33.6166C53.1635 34.4452 51.7087 34.5206 51.1185 34.5256C50.88 34.5256 49.4908 34.5256 48.0122 33.943C47.4578 33.722 47.0881 33.501 46.8198 33.3002C46.6112 33.1445 46.4561 32.9938 46.3667 32.9084C46.2296 32.7728 46.0984 32.6473 45.9136 32.356C45.9017 32.3409 45.9255 32.2957 45.9136 32.2706V30.4676L45.9196 30.4726Z" fill="url(#paint3_linear_2090_39446)"/>
<path d="M24.0799 31.7795C24.0799 32.7338 24.0799 33.683 24.074 34.6372V37.8766C21.1585 37.8665 18.2431 37.8565 15.3276 37.8515C15.0534 37.8515 14.6301 37.8163 14.1769 37.6355C13.5867 37.3995 13.2588 37.0278 13.0919 36.8269C11.9114 35.4508 11.2317 34.1751 11.2317 34.1751C10.6891 33.1606 10.0751 32.1662 9.51462 31.1568C8.88264 30.0067 8.62627 29.5798 7.72004 27.9576C7.17749 26.9832 6.38454 25.587 5.37695 23.8594" fill="#5547D7" fill-opacity="0.5"/>
<path d="M25.3385 20.6107C25.0583 20.7764 23.687 19.6515 21.2306 17.2357V18.5767L23.9374 21.1832C23.9851 24.3021 24.0328 27.4209 24.0805 30.5448C24.0626 30.5548 20.1813 31.9058 18.9591 32.1318C17.5342 32.398 16.5206 32.4382 15.5309 32.0917C14.881 31.8657 14.4637 31.5492 14.2729 31.3986C12.9672 30.3791 9.75368 27.6068 5.33579 23.83C3.75585 21.3339 2.18187 18.8378 0.601923 16.3418C0.339592 15.8194 -0.524906 13.9411 0.458833 12.0276C0.721164 11.5254 1.05504 11.1186 1.37699 10.8072C4.50111 8.25588 7.7385 5.41829 10.8626 2.86697C11.4946 2.84688 12.6751 2.54052 13.7304 2.78661C14.7857 3.03271 15.7813 3.84129 17.0214 4.49921C18.345 5.19731 19.4897 6.17163 20.7894 7.99975C23.6035 11.9523 24.9987 16.2564 25.3146 19.2296C25.3981 20.0834 25.4816 20.5253 25.3325 20.6107H25.3385Z" fill="url(#paint4_linear_2090_39446)"/>
<path d="M24.0798 30.3945L23.9487 30.4397C22.5178 30.8766 21.218 31.2332 19.9243 31.6802C19.495 31.8208 18.7259 32.0318 17.927 32.082C17.4917 32.1121 16.9015 32.2678 16.0489 32.0368C15.1964 31.8057 14.5882 31.4391 14.4153 31.3136C13.992 31.0122 12.9427 30.1283 12.0722 29.4151C11.005 28.5413 9.88416 27.6021 8.86465 26.6931C8.10747 26.0201 6.91506 25.0156 5.38281 23.8555C7.24894 25.7137 8.66194 27.2907 9.60395 28.3856C11.9768 31.1478 12.7877 32.4888 15.0473 33.5384C16.8359 34.3671 18.2907 34.4424 18.8809 34.4475C19.1194 34.4475 20.5085 34.4475 21.9871 33.8649C22.5416 33.6439 22.9113 33.4229 23.1796 33.222C23.3882 33.0663 23.5432 32.9157 23.6327 32.8303C23.7698 32.6947 23.901 32.5691 24.0858 32.2778C24.0977 32.2628 24.0739 32.2176 24.0858 32.1925V30.3895L24.0798 30.3945Z" fill="url(#paint5_linear_2090_39446)"/>
<path d="M38.8492 40.764H30.8004C30.5261 40.6385 30.2102 40.4577 29.9001 40.1965C29.0535 39.4833 28.815 38.6346 28.7435 38.2428C27.4318 31.6888 26.1261 25.1296 24.8145 18.5756C24.1825 15.7329 23.2763 13.4679 22.5251 11.8758C21.5532 9.81167 20.6411 7.91827 18.5961 5.93446C16.1814 3.5991 14.2497 3.13203 13.6356 3.00647C12.5088 2.77544 11.5251 2.80558 10.8633 2.87087C11.2627 2.34855 12.3299 1.10804 14.3094 0.430036C16.2351 -0.227883 17.9283 0.0232309 18.9478 0.183944C21.9348 0.661061 23.8606 2.18281 24.6476 2.89598C26.6568 4.50813 28.3321 5.51761 29.447 6.12531C29.5603 6.18558 29.912 6.37642 30.3831 6.61247C32.3505 7.60186 33.4893 8.1744 34.5684 8.32005C35.0394 8.38534 36.7923 8.54103 39.1115 6.88367C41.4963 5.23636 43.8752 3.59408 46.26 1.94677C46.9933 1.40938 48.3885 0.545549 50.3798 0.239189C51.0595 0.133721 51.6855 0.113632 52.2161 0.128699C53.17 0.148788 54.6128 0.299457 56.1451 0.942309C56.7115 1.17836 57.1944 1.44454 57.5939 1.70067C58.1364 2.17779 58.6849 2.65491 59.2275 3.13203C58.1662 3.11696 56.3001 3.21741 54.2492 4.0059C53.7603 4.19675 52.0969 4.87476 50.505 6.3262C49.6465 7.10968 49.0801 7.87306 48.7164 8.44058C47.995 9.53042 47.2318 10.8563 46.5641 12.4082C45.9261 13.8948 45.5088 15.2709 45.2345 16.4562C45.0199 17.3501 44.8291 18.3044 44.6681 19.3038C44.5608 19.9768 44.4774 20.6247 44.4118 21.2575C44.066 23.6029 43.7202 25.9483 43.3744 28.2987C42.7484 30.6391 42.1164 32.9795 41.4904 35.3199C41.3294 36.4298 41.1684 37.5447 41.0074 38.6547C40.9836 38.8355 40.918 39.1167 40.7153 39.408C40.3218 39.9755 39.982 40.4275 39.7733 40.4928" fill="url(#paint6_linear_2090_39446)"/>
<path opacity="0.1" d="M37.9904 36.1581H31.7541C31.5454 36.0627 31.295 35.9171 31.0566 35.7162C30.4007 35.1637 30.2159 34.5058 30.1563 34.2045C29.1427 29.1269 28.1292 24.0544 27.1156 18.9769C26.6268 16.7771 25.9232 15.0243 25.3449 13.7889C24.5937 12.1918 23.8842 10.7253 22.3043 9.18845C20.4381 7.38042 18.9417 7.01882 18.4647 6.91837C17.5942 6.73757 16.8311 6.76268 16.3184 6.8129C16.6284 6.41112 17.4511 5.44684 18.9834 4.92452C20.4739 4.41727 21.7856 4.60812 22.5726 4.73368C24.8858 5.1003 26.3763 6.28054 26.9845 6.83299C28.5406 8.07852 29.8403 8.862 30.6988 9.33409C30.7883 9.38431 31.0566 9.52996 31.4202 9.71076C32.9465 10.4792 33.823 10.9211 34.6636 11.0316C35.0273 11.0818 36.3866 11.2024 38.1812 9.91668C40.0235 8.64102 41.8717 7.37038 43.714 6.09472C44.2804 5.67787 45.3655 5.0099 46.9037 4.77386C47.4343 4.6935 47.9113 4.67341 48.3227 4.68848C49.062 4.70354 50.1769 4.81906 51.3633 5.31626C51.8045 5.50209 52.1742 5.708 52.4842 5.90387C52.9075 6.27552 53.3248 6.64215 53.7481 7.01379C52.9254 7.00375 51.4826 7.07908 49.8967 7.6918C49.5151 7.83745 48.2273 8.36479 46.9991 9.48978C46.3313 10.0975 45.8961 10.6901 45.6159 11.127C45.0555 11.9708 44.4652 12.9953 43.9525 14.2007C43.4576 15.3508 43.1357 16.4155 42.921 17.3346C42.7541 18.0277 42.6051 18.7659 42.4858 19.5394C42.4024 20.0617 42.3368 20.5639 42.2891 21.0511C42.0208 22.8692 41.7525 24.6872 41.4842 26.5003C40.9953 28.3133 40.5124 30.1213 40.0235 31.9344C39.8983 32.7932 39.7731 33.657 39.6479 34.5158C39.63 34.6565 39.5763 34.8724 39.4213 35.0984C39.1173 35.5404 38.6284 35.7111 38.4674 35.7614" fill="url(#paint7_linear_2090_39446)"/>
<defs>
<linearGradient id="paint0_linear_2090_39446" x1="34.8421" y1="45.8727" x2="34.8717" y2="42.3671" gradientUnits="userSpaceOnUse">
<stop stop-color="#0A1027" stop-opacity="0.5"/>
<stop offset="1" stop-color="#5547D7"/>
</linearGradient>
<linearGradient id="paint1_linear_2090_39446" x1="35.0086" y1="50.1752" x2="35.0383" y2="47.2521" gradientUnits="userSpaceOnUse">
<stop stop-color="#5547D7" stop-opacity="0.1"/>
<stop offset="1" stop-color="#5547D7"/>
</linearGradient>
<linearGradient id="paint2_linear_2090_39446" x1="70.002" y1="17.7563" x2="38.0021" y2="17.7563" gradientUnits="userSpaceOnUse">
<stop stop-color="#5547D7" stop-opacity="0.2"/>
<stop offset="1" stop-color="#5547D7"/>
</linearGradient>
<linearGradient id="paint3_linear_2090_39446" x1="45.9136" y1="29.2321" x2="64.6225" y2="29.2321" gradientUnits="userSpaceOnUse">
<stop stop-color="#5547D7" stop-opacity="0.1"/>
<stop offset="1" stop-color="#5547D7"/>
</linearGradient>
<linearGradient id="paint4_linear_2090_39446" x1="25.416" y1="17.512" x2="-6.57639" y2="17.512" gradientUnits="userSpaceOnUse">
<stop stop-color="#5547D7" stop-opacity="0.2"/>
<stop offset="1" stop-color="#5547D7"/>
</linearGradient>
<linearGradient id="paint5_linear_2090_39446" x1="24.0798" y1="29.154" x2="5.37685" y2="29.154" gradientUnits="userSpaceOnUse">
<stop stop-color="#5547D7" stop-opacity="0.1"/>
<stop offset="1" stop-color="#5547D7"/>
</linearGradient>
<linearGradient id="paint6_linear_2090_39446" x1="31.8616" y1="41.5927" x2="34.2426" y2="0.89562" gradientUnits="userSpaceOnUse">
<stop stop-color="#5547D7" stop-opacity="0.2"/>
<stop offset="1" stop-color="#5547D7"/>
</linearGradient>
<linearGradient id="paint7_linear_2090_39446" x1="34.6576" y1="37.8557" x2="34.9369" y2="6.31468" gradientUnits="userSpaceOnUse">
<stop stop-color="#5547D7" stop-opacity="0.2"/>
<stop offset="1" stop-color="#5547D7"/>
</linearGradient>
</defs>
</svg>
