<svg width="147" height="31" viewBox="0 0 147 31" fill="none" xmlns="http://www.w3.org/2000/svg">
<path d="M67.719 9.185V21H65.781V12.908L62.177 21H60.834L57.213 12.908V21H55.275V9.185H57.366L61.514 18.45L65.645 9.185H67.719ZM71.2522 10.392C70.9009 10.392 70.6062 10.273 70.3682 10.035C70.1302 9.797 70.0112 9.50233 70.0112 9.151C70.0112 8.79967 70.1302 8.505 70.3682 8.267C70.6062 8.029 70.9009 7.91 71.2522 7.91C71.5922 7.91 71.8812 8.029 72.1192 8.267C72.3572 8.505 72.4762 8.79967 72.4762 9.151C72.4762 9.50233 72.3572 9.797 72.1192 10.035C71.8812 10.273 71.5922 10.392 71.2522 10.392ZM72.2042 11.633V21H70.2662V11.633H72.2042ZM79.4746 11.48C80.2113 11.48 80.8686 11.633 81.4466 11.939C82.036 12.245 82.495 12.6983 82.8236 13.299C83.1523 13.8997 83.3166 14.625 83.3166 15.475V21H81.3956V15.764C81.3956 14.9253 81.186 14.285 80.7666 13.843C80.3473 13.3897 79.775 13.163 79.0496 13.163C78.3243 13.163 77.7463 13.3897 77.3156 13.843C76.8963 14.285 76.6866 14.9253 76.6866 15.764V21H74.7486V11.633H76.6866V12.704C77.004 12.3187 77.4063 12.0183 77.8936 11.803C78.3923 11.5877 78.9193 11.48 79.4746 11.48ZM85.1427 16.308C85.1427 15.3447 85.3353 14.5003 85.7207 13.775C86.1173 13.0383 86.6613 12.4717 87.3527 12.075C88.044 11.6783 88.8373 11.48 89.7327 11.48C90.866 11.48 91.801 11.752 92.5377 12.296C93.2857 12.8287 93.79 13.5937 94.0507 14.591H91.9597C91.7897 14.1263 91.5177 13.7637 91.1437 13.503C90.7697 13.2423 90.2993 13.112 89.7327 13.112C88.9393 13.112 88.3047 13.3953 87.8287 13.962C87.364 14.5173 87.1317 15.2993 87.1317 16.308C87.1317 17.3167 87.364 18.1043 87.8287 18.671C88.3047 19.2377 88.9393 19.521 89.7327 19.521C90.8547 19.521 91.597 19.028 91.9597 18.042H94.0507C93.7787 18.994 93.2687 19.7533 92.5207 20.32C91.7727 20.8753 90.8433 21.153 89.7327 21.153C88.8373 21.153 88.044 20.9547 87.3527 20.558C86.6613 20.15 86.1173 19.5833 85.7207 18.858C85.3353 18.1213 85.1427 17.2713 85.1427 16.308ZM104.567 16.087C104.567 16.4383 104.544 16.7557 104.499 17.039H97.342C97.3987 17.787 97.6764 18.3877 98.175 18.841C98.6737 19.2943 99.2857 19.521 100.011 19.521C101.054 19.521 101.79 19.0847 102.221 18.212H104.312C104.029 19.0733 103.513 19.7817 102.765 20.337C102.028 20.881 101.11 21.153 100.011 21.153C99.1157 21.153 98.311 20.9547 97.597 20.558C96.8944 20.15 96.339 19.5833 95.931 18.858C95.5344 18.1213 95.336 17.2713 95.336 16.308C95.336 15.3447 95.5287 14.5003 95.914 13.775C96.3107 13.0383 96.8604 12.4717 97.563 12.075C98.277 11.6783 99.093 11.48 100.011 11.48C100.895 11.48 101.683 11.6727 102.374 12.058C103.065 12.4433 103.604 12.9873 103.989 13.69C104.374 14.3813 104.567 15.1803 104.567 16.087ZM102.544 15.475C102.533 14.761 102.278 14.1887 101.779 13.758C101.28 13.3273 100.663 13.112 99.926 13.112C99.2574 13.112 98.685 13.3273 98.209 13.758C97.733 14.1773 97.4497 14.7497 97.359 15.475H102.544ZM114.107 9.185V10.766H110.962V21H109.024V10.766H105.862V9.185H114.107ZM124.655 16.087C124.655 16.4383 124.632 16.7557 124.587 17.039H117.43C117.487 17.787 117.764 18.3877 118.263 18.841C118.762 19.2943 119.374 19.521 120.099 19.521C121.142 19.521 121.878 19.0847 122.309 18.212H124.4C124.117 19.0733 123.601 19.7817 122.853 20.337C122.116 20.881 121.198 21.153 120.099 21.153C119.204 21.153 118.399 20.9547 117.685 20.558C116.982 20.15 116.427 19.5833 116.019 18.858C115.622 18.1213 115.424 17.2713 115.424 16.308C115.424 15.3447 115.617 14.5003 116.002 13.775C116.399 13.0383 116.948 12.4717 117.651 12.075C118.365 11.6783 119.181 11.48 120.099 11.48C120.983 11.48 121.771 11.6727 122.462 12.058C123.153 12.4433 123.692 12.9873 124.077 13.69C124.462 14.3813 124.655 15.1803 124.655 16.087ZM122.632 15.475C122.621 14.761 122.366 14.1887 121.867 13.758C121.368 13.3273 120.751 13.112 120.014 13.112C119.345 13.112 118.773 13.3273 118.297 13.758C117.821 14.1773 117.538 14.7497 117.447 15.475H122.632ZM125.916 16.308C125.916 15.3447 126.109 14.5003 126.494 13.775C126.891 13.0383 127.435 12.4717 128.126 12.075C128.817 11.6783 129.611 11.48 130.506 11.48C131.639 11.48 132.574 11.752 133.311 12.296C134.059 12.8287 134.563 13.5937 134.824 14.591H132.733C132.563 14.1263 132.291 13.7637 131.917 13.503C131.543 13.2423 131.073 13.112 130.506 13.112C129.713 13.112 129.078 13.3953 128.602 13.962C128.137 14.5173 127.905 15.2993 127.905 16.308C127.905 17.3167 128.137 18.1043 128.602 18.671C129.078 19.2377 129.713 19.521 130.506 19.521C131.628 19.521 132.37 19.028 132.733 18.042H134.824C134.552 18.994 134.042 19.7533 133.294 20.32C132.546 20.8753 131.617 21.153 130.506 21.153C129.611 21.153 128.817 20.9547 128.126 20.558C127.435 20.15 126.891 19.5833 126.494 18.858C126.109 18.1213 125.916 17.2713 125.916 16.308ZM141.6 11.48C142.314 11.48 142.949 11.633 143.504 11.939C144.071 12.245 144.513 12.6983 144.83 13.299C145.159 13.8997 145.323 14.625 145.323 15.475V21H143.402V15.764C143.402 14.9253 143.193 14.285 142.773 13.843C142.354 13.3897 141.782 13.163 141.056 13.163C140.331 13.163 139.753 13.3897 139.322 13.843C138.903 14.285 138.693 14.9253 138.693 15.764V21H136.755V8.42H138.693V12.721C139.022 12.3243 139.436 12.0183 139.934 11.803C140.444 11.5877 141 11.48 141.6 11.48Z" fill="url(#paint0_linear_2922_409)"/>
<path d="M14.8945 25.8086H21.0215V26.3888C21.0215 27.2268 20.3401 27.9082 19.502 27.9082H16.414C15.576 27.9082 14.8945 27.2268 14.8945 26.3888V25.8086Z" fill="url(#paint1_linear_2922_409)"/>
<path opacity="0.16" d="M16.2246 25.8145H19.8652V26.1583C19.8652 26.6555 19.46 27.0607 18.9627 27.0607H17.1271C16.6298 27.0607 16.2246 26.6555 16.2246 26.1583V25.8145Z" fill="white"/>
<path d="M15.4883 28.8105H20.5992V29.2925C20.5992 29.9924 20.0313 30.5602 19.3315 30.5602H16.756C16.0562 30.5602 15.4883 29.9924 15.4883 29.2925V28.8105Z" fill="url(#paint2_linear_2922_409)"/>
<path opacity="0.16" d="M16.5957 28.8145H19.6316V29.0999C19.6316 29.5143 19.2939 29.852 18.8795 29.852H17.3478C16.9334 29.852 16.5957 29.5143 16.5957 29.0999V28.8145Z" fill="white"/>
<path d="M23.6426 19.4697C23.6426 20.0529 23.6426 20.6331 23.6456 21.2163V23.1962C25.1467 23.1901 26.6477 23.184 28.1488 23.1809C28.29 23.1809 28.5079 23.1594 28.7412 23.0489C29.0451 22.9046 29.214 22.6775 29.2999 22.5547C29.9077 21.7136 30.2576 20.9339 30.2576 20.9339C30.537 20.3139 30.8531 19.7061 31.1417 19.0891C31.4671 18.3861 31.5991 18.1252 32.0656 17.1337C32.345 16.5382 32.7532 15.6849 33.272 14.6289" fill="#5547D7" fill-opacity="0.5"/>
<path d="M22.9954 12.646C23.1397 12.7473 23.8457 12.0597 25.1104 10.5832V11.4028L23.7168 12.996C23.6922 14.9022 23.6677 16.8084 23.6431 18.7178C23.6523 18.7239 25.6506 19.5496 26.2799 19.6878C27.0136 19.8504 27.5354 19.875 28.045 19.6632C28.3795 19.5251 28.5944 19.3317 28.6926 19.2396C29.3649 18.6165 31.0194 16.922 33.294 14.6137C34.1075 13.0881 34.9179 11.5624 35.7313 10.0368C35.8664 9.7176 36.3115 8.56956 35.805 7.40003C35.6699 7.09307 35.498 6.84443 35.3323 6.65411C33.7238 5.09474 32.0877 3.45863 30.4792 1.89925C29.8192 1.8747 28.5392 2.00055 27.2745 2.79866C26.6053 3.2192 25.7673 3.50774 25.1104 4.58825C25.0981 4.60667 24.9047 4.73559 24.8955 4.75401C23.4466 7.16981 23.1673 9.98466 23.0046 11.8019C22.9616 12.3237 22.9187 12.5938 22.9954 12.646Z" fill="url(#paint3_linear_2922_409)"/>
<path d="M23.6416 18.6256L23.7091 18.6532C24.4458 18.9202 25.115 19.1382 25.7811 19.4114C26.0021 19.4973 26.3981 19.6263 26.8094 19.657C27.0335 19.6754 27.3374 19.7705 27.7764 19.6293C28.2153 19.4881 28.5284 19.264 28.6174 19.1873C28.8354 19.0031 29.3756 18.4629 29.8238 18.027C30.3733 17.4929 30.9503 16.9189 31.4753 16.3632C31.8651 15.9519 32.479 15.338 33.2679 14.6289C32.3071 15.7647 31.5796 16.7285 31.0946 17.3977C29.8729 19.086 29.4554 19.9056 28.292 20.5472C27.3712 21.0536 26.6222 21.0997 26.3183 21.1028C26.1955 21.1028 25.4803 21.1028 24.719 20.7467C24.4335 20.6116 24.2432 20.4766 24.1051 20.3538C23.9976 20.2586 23.9178 20.1665 23.8718 20.1143C23.8012 20.0315 23.7336 19.9547 23.6385 19.7767C23.6324 19.7675 23.6446 19.7398 23.6385 19.7245V18.6225L23.6416 18.6256Z" fill="url(#paint4_linear_2922_409)"/>
<path d="M12.399 19.4228C12.399 20.0061 12.399 20.5862 12.3959 21.1695V23.1494C10.8948 23.1432 9.39379 23.1371 7.89274 23.134C7.75154 23.134 7.5336 23.1125 7.3003 23.002C6.99641 22.8578 6.82758 22.6306 6.74163 22.5078C6.13384 21.6667 5.78391 20.887 5.78391 20.887C5.50457 20.267 5.1884 19.6592 4.89985 19.0422C4.57447 18.3393 4.44248 18.0783 3.9759 17.0868C3.69656 16.4913 3.2883 15.638 2.76953 14.582" fill="#5547D7" fill-opacity="0.5"/>
<path d="M13.0458 12.5968C12.9015 12.6981 12.1955 12.0105 10.9308 10.534V11.3536L12.3244 12.9468C12.349 14.853 12.3735 16.7593 12.3981 18.6686C12.3889 18.6747 10.3906 19.5004 9.7613 19.6386C9.02765 19.8013 8.50582 19.8258 7.99626 19.614C7.66167 19.4759 7.44679 19.2825 7.34857 19.1904C6.67632 18.5673 5.02179 16.8728 2.74719 14.5645C1.93374 13.0389 1.12336 11.5133 0.309906 9.98765C0.174843 9.66841 -0.270254 8.52037 0.236235 7.35084C0.371299 7.04388 0.543198 6.79524 0.708958 6.60492C2.31744 5.04555 3.98425 3.31121 5.59274 1.75184C5.91812 1.73956 6.52591 1.55231 7.06923 1.70272C7.61256 1.85313 8.12518 2.34734 8.76367 2.74947C9.44512 3.17614 10.0345 3.77165 10.7037 4.889C12.1525 7.3048 12.8708 9.93547 13.0335 11.7527C13.0765 12.2745 13.1195 12.5447 13.0427 12.5968H13.0458Z" fill="url(#paint5_linear_2922_409)"/>
<path d="M12.3978 18.5767L12.3303 18.6044C11.5936 18.8714 10.9244 19.0894 10.2583 19.3626C10.0373 19.4485 9.64131 19.5774 9.22998 19.6081C9.0059 19.6265 8.70201 19.7217 8.26305 19.5805C7.82409 19.4393 7.51099 19.2152 7.42197 19.1385C7.20403 18.9543 6.66377 18.414 6.21561 17.9782C5.66614 17.444 5.08905 16.87 4.56415 16.3144C4.17431 15.9031 3.56038 15.2892 2.77148 14.5801C3.73228 15.7158 4.45978 16.6797 4.94478 17.3489C6.16649 19.0372 6.58396 19.8568 7.74735 20.4983C8.66824 21.0048 9.41723 21.0509 9.72113 21.0539C9.84391 21.0539 10.5591 21.0539 11.3204 20.6979C11.6059 20.5628 11.7962 20.4277 11.9343 20.3049C12.0418 20.2098 12.1216 20.1177 12.1676 20.0655C12.2382 19.9826 12.3058 19.9059 12.4009 19.7278C12.4071 19.7186 12.3948 19.691 12.4009 19.6757V18.5737L12.3978 18.5767Z" fill="url(#paint6_linear_2922_409)"/>
<path d="M20.0006 24.915H15.8566C15.7154 24.8383 15.5527 24.7278 15.3931 24.5682C14.9572 24.1323 14.8345 23.6135 14.7976 23.3741C14.1223 19.3682 13.45 15.3593 12.7747 11.3534C12.4493 9.616 11.9828 8.2316 11.596 7.25852C11.0956 5.99691 10.626 4.83966 9.57311 3.62715C8.32991 2.19977 7.33535 1.9143 7.01918 1.83756C6.43902 1.69636 5.93253 1.71477 5.5918 1.75468C5.79746 1.43544 6.34693 0.677239 7.36604 0.262839C8.35753 -0.139283 9.22931 0.0141988 9.75421 0.112427C11.2921 0.404042 12.2836 1.33414 12.6888 1.77003C13.7232 2.75538 14.5858 3.37237 15.1598 3.7438C15.2182 3.78063 15.3993 3.89728 15.6418 4.04155C16.6547 4.64627 17.241 4.99621 17.7966 5.08523C18.0391 5.12513 18.9416 5.22029 20.1357 4.20731C21.3636 3.20047 22.5883 2.19671 23.8162 1.18987C24.1937 0.861417 24.912 0.33344 25.9373 0.146193C26.2872 0.0817306 26.6095 0.0694521 26.8827 0.078661C27.3739 0.0909395 28.1167 0.183028 28.9056 0.575941C29.1972 0.720214 29.4459 0.882904 29.6516 1.03946C29.9309 1.33107 30.2133 1.62268 30.4926 1.9143C29.9462 1.90509 28.9854 1.96648 27.9295 2.44841C27.6778 2.56506 26.8214 2.97946 26.0018 3.86658C25.5597 4.34545 25.2681 4.81203 25.0809 5.1589C24.7094 5.82501 24.3165 6.63539 23.9727 7.5839C23.6443 8.49251 23.4294 9.33359 23.2882 10.058C23.1777 10.6044 23.0795 11.1876 22.9966 11.7985C22.9413 12.2098 22.8984 12.6058 22.8646 12.9926C22.6866 14.4261 22.5085 15.8596 22.3305 17.2962C22.0082 18.7267 21.6828 20.1571 21.3605 21.5876C21.2776 22.2659 21.1947 22.9474 21.1118 23.6258C21.0996 23.7363 21.0658 23.9082 20.9614 24.0862C20.7588 24.4331 20.5839 24.7094 20.4764 24.7493" fill="url(#paint7_linear_2922_409)"/>
<path opacity="0.1" d="M19.5604 22.1H16.3496C16.2422 22.0417 16.1133 21.9527 15.9905 21.8299C15.6528 21.4922 15.5576 21.0901 15.527 20.9059C15.0051 17.8025 14.4833 14.7022 13.9614 11.5988C13.7097 10.2543 13.3475 9.18303 13.0498 8.4279C12.663 7.45176 12.2977 6.55543 11.4843 5.61612C10.5235 4.51105 9.75298 4.29004 9.50741 4.22865C9.05924 4.11814 8.66633 4.13349 8.40234 4.16418C8.56196 3.91861 8.98557 3.32925 9.77447 3.01C10.5419 2.69997 11.2172 2.81662 11.6224 2.89336C12.8134 3.11744 13.5808 3.8388 13.8939 4.17646C14.6951 4.93773 15.3643 5.41659 15.8063 5.70514C15.8523 5.73583 15.9905 5.82485 16.1777 5.93536C16.9635 6.40501 17.4148 6.67514 17.8476 6.74267C18.0348 6.77337 18.7347 6.84704 19.6587 6.06122C20.6072 5.28153 21.5588 4.50491 22.5073 3.72523C22.7989 3.47045 23.3576 3.06219 24.1495 2.91791C24.4227 2.8688 24.6683 2.85652 24.8801 2.86573C25.2607 2.87494 25.8348 2.94554 26.4456 3.24943C26.6728 3.36301 26.8631 3.48887 27.0227 3.60858C27.2407 3.83573 27.4555 4.05982 27.6735 4.28697C27.2499 4.28083 26.507 4.32687 25.6905 4.70137C25.494 4.79039 24.831 5.1127 24.1987 5.8003C23.8549 6.17172 23.6308 6.53394 23.4865 6.801C23.198 7.31669 22.8941 7.9429 22.6301 8.67961C22.3753 9.38255 22.2095 10.0333 22.099 10.5951C22.0131 11.0187 21.9363 11.4699 21.8749 11.9426C21.832 12.2619 21.7982 12.5688 21.7736 12.8666C21.6355 13.9778 21.4974 15.089 21.3592 16.1971C21.1075 17.3053 20.8589 18.4103 20.6072 19.5185C20.5427 20.0434 20.4783 20.5714 20.4138 21.0963C20.4046 21.1822 20.377 21.3142 20.2972 21.4523C20.1406 21.7225 19.8889 21.8268 19.806 21.8575" fill="url(#paint8_linear_2922_409)"/>
<defs>
<linearGradient id="paint0_linear_2922_409" x1="220" y1="-123" x2="100" y2="47" gradientUnits="userSpaceOnUse">
<stop stop-color="#0A1027"/>
<stop offset="1" stop-color="#5547D7"/>
</linearGradient>
<linearGradient id="paint1_linear_2922_409" x1="17.9396" y1="28.0371" x2="17.9611" y2="25.8945" gradientUnits="userSpaceOnUse">
<stop stop-color="#0A1027" stop-opacity="0.5"/>
<stop offset="1" stop-color="#5547D7"/>
</linearGradient>
<linearGradient id="paint2_linear_2922_409" x1="18.0238" y1="30.6677" x2="18.0453" y2="28.8811" gradientUnits="userSpaceOnUse">
<stop stop-color="#5547D7" stop-opacity="0.1"/>
<stop offset="1" stop-color="#5547D7"/>
</linearGradient>
<linearGradient id="paint3_linear_2922_409" x1="36.0419" y1="10.8535" x2="19.5664" y2="10.8535" gradientUnits="userSpaceOnUse">
<stop stop-color="#5547D7" stop-opacity="0.2"/>
<stop offset="1" stop-color="#5547D7"/>
</linearGradient>
<linearGradient id="paint4_linear_2922_409" x1="23.6385" y1="17.8674" x2="33.271" y2="17.8674" gradientUnits="userSpaceOnUse">
<stop stop-color="#5547D7" stop-opacity="0.1"/>
<stop offset="1" stop-color="#5547D7"/>
</linearGradient>
<linearGradient id="paint5_linear_2922_409" x1="13.0857" y1="10.7029" x2="-3.38593" y2="10.7029" gradientUnits="userSpaceOnUse">
<stop stop-color="#5547D7" stop-opacity="0.2"/>
<stop offset="1" stop-color="#5547D7"/>
</linearGradient>
<linearGradient id="paint6_linear_2922_409" x1="12.3978" y1="17.8185" x2="2.76841" y2="17.8185" gradientUnits="userSpaceOnUse">
<stop stop-color="#5547D7" stop-opacity="0.1"/>
<stop offset="1" stop-color="#5547D7"/>
</linearGradient>
<linearGradient id="paint7_linear_2922_409" x1="16.403" y1="25.4215" x2="18.1282" y2="0.58208" gradientUnits="userSpaceOnUse">
<stop stop-color="#5547D7" stop-opacity="0.2"/>
<stop offset="1" stop-color="#5547D7"/>
</linearGradient>
<linearGradient id="paint8_linear_2922_409" x1="17.8445" y1="23.1376" x2="18.0471" y2="3.86029" gradientUnits="userSpaceOnUse">
<stop stop-color="#5547D7" stop-opacity="0.2"/>
<stop offset="1" stop-color="#5547D7"/>
</linearGradient>
</defs>
</svg>
